<?xml version="1.0" encoding="UTF-8"?>
<svg id="Layer_1" xmlns="http://www.w3.org/2000/svg" version="1.1" viewBox="0 0 500 100">
  <defs>
    <style>
      .st0 {
        fill: currentColor;
      }
    </style>
  </defs>
  <g>
    <path class="st0" d="M12.43,16.29h16.14c12.37,0,15.12,4.36,15.12,12.19v3.71c0,7.77-2.75,12.79-15.12,12.79h-4.3v13.15h-11.84V16.29ZM27.85,35.6c3.23,0,4.18-1.67,4.18-4.66v-.6c0-2.99-.96-4.66-4.18-4.66h-3.59v9.92h3.59Z"/>
    <path class="st0" d="M47.76,16.29h17.34c12.08,0,14.77,3.95,14.77,11v2.09c0,5.08-1.55,6.81-6.64,7.05v.6c5.2.36,6.81,3.05,6.81,7.59v8.79c0,2.45.24,3.29,1.26,4.36v.36h-12.67c-.36-.96-.54-2.09-.54-3.83v-7.53c0-3.05-.78-4.3-3.89-4.3h-4.6v15.66h-11.84V16.29ZM64.2,33.57c3.23,0,4.18-1.02,4.18-3.23v-1.2c0-2.39-.96-3.47-4.18-3.47h-4.6v7.89h4.6Z"/>
    <path class="st0" d="M84.58,39.96v-5.5c0-12.73,1.43-18.89,16.74-18.89s16.74,6.16,16.74,18.89v5.5c0,12.73-1.43,18.89-16.74,18.89s-16.74-6.16-16.74-18.89ZM101.31,48.69c3.83,0,4.78-1.49,4.78-3.95v-15.06c0-2.45-.96-3.95-4.78-3.95s-4.78,1.49-4.78,3.95v15.06c0,2.45.96,3.95,4.78,3.95Z"/>
    <path class="st0" d="M122.83,16.29h16.62l4.78,20.98h.3l4.78-20.98h16.62v41.84h-10.34v-27.62h-.72l-5.62,27.62h-9.74l-5.62-27.62h-.72v27.62h-10.34V16.29Z"/>
    <path class="st0" d="M171.91,16.29h16.14c12.37,0,15.12,4.36,15.12,12.19v3.71c0,7.77-2.75,12.79-15.12,12.79h-4.3v13.15h-11.84V16.29ZM187.33,35.6c3.23,0,4.18-1.67,4.18-4.66v-.6c0-2.99-.96-4.66-4.18-4.66h-3.59v9.92h3.59Z"/>
    <path class="st0" d="M215.36,26.69h-10.4v-10.4h32.64v10.4h-10.4v31.44h-11.84v-31.44Z"/>
    <path class="st0" d="M257.68,44.33c0-5.38,1.73-8.49,6.22-9.15-1.85-2.81-2.69-4.72-2.69-7.59v-1.43c0-6.87,4.36-10.58,12.97-10.58s12.13,4.01,12.13,11.6v2.57l-9.21.42v-2.99c0-2.15-.48-3.47-2.63-3.47s-2.69,1.37-2.69,3.17c0,2.87.36,3.95,1.67,5.74l4.84,6.64h.3l1.91-5.38,9.03.18-5.38,13.27,7.83,10.82h-11.42l-1.97-2.69h-.42c-1.85,2.21-4.66,3.41-8.19,3.41-7.95,0-12.31-3.71-12.31-11.3v-3.23ZM270.71,51.86c1.85,0,2.99-.54,3.89-1.97l-6.87-9.39c-.66.48-.96,1.37-.96,2.93v4.01c0,3.11,1.08,4.42,3.95,4.42Z"/>
    <path class="st0" d="M310.34,47.2v-2.15l11.54-.6c0,.48.06.96.06,1.43.12,2.27,1.37,3.17,4.84,3.17s4.84-.96,4.84-3.05c0-1.73-1.08-2.33-3.65-2.99l-7.65-1.97c-6.81-1.73-9.92-4.54-9.92-10.88v-2.39c0-8.85,4.96-12.19,15.54-12.19,11.12,0,15.3,3.35,15.3,11.9v2.63l-11.06.42c0-.54-.06-1.08-.06-1.61-.06-2.27-1.43-3.11-4.48-3.11-3.23,0-4.12,1.08-4.12,2.51,0,1.61.72,2.15,4.12,3.05l7.47,1.91c6.64,1.67,8.97,4.84,8.97,11v2.21c0,9.92-5.02,12.37-15.48,12.37-11.48,0-16.26-2.63-16.26-11.66Z"/>
    <path class="st0" d="M345.55,39.96v-5.5c0-12.73,1.43-18.89,16.74-18.89s16.74,6.16,16.74,18.89v5.5c0,12.73-1.43,18.89-16.74,18.89s-16.74-6.16-16.74-18.89ZM351.64,5.53h8.37v7.65h-8.37v-7.65ZM362.28,48.69c3.83,0,4.78-1.49,4.78-3.95v-15.06c0-2.45-.96-3.95-4.78-3.95s-4.78,1.49-4.78,3.95v15.06c0,2.45.96,3.95,4.78,3.95ZM364.49,5.53h8.37v7.65h-8.37v-7.65Z"/>
    <path class="st0" d="M404.13,41.88h-8.49v16.26h-11.84V16.29h11.84v16.62h8.49v-16.62h11.84v41.84h-11.84v-16.26Z"/>
    <path class="st0" d="M421.94,16.29h14.23l6.99,21.1v-21.1h10.34v41.84h-13.69l-7.53-22.72v22.72h-10.34V16.29Z"/>
    <path class="st0" d="M459.47,16.29h27.68v9.92h-15.84v6.16h12.08v8.97h-12.08v6.64h16.26v10.16h-28.1V16.29Z"/>
  </g>
  <g>
    <path class="st0" d="M170.81,76.13h4.4l1.52,10.87h.31l1.52-10.87h4.4l-2.94,18.03h-6.28l-2.94-18.03Z"/>
    <path class="st0" d="M184.51,76.13h4.79v18.03h-4.79v-18.03Z"/>
    <path class="st0" d="M191.72,89.88c0-.36.03-.8.08-1.24h4.25c-.05.26-.08.49-.08.75,0,.82.28,1.37,1.06,1.37.7,0,.95-.54.95-1.29s-.36-1.24-1.21-1.83l-1.83-1.26c-2.29-1.57-3.19-3.04-3.19-5.46v-.26c0-3.24,1.73-4.84,5.2-4.84,3.79,0,5.28,1.47,5.28,4.76,0,.39,0,.85-.05,1.34h-4.15c.05-.31.05-.62.05-.93-.03-.8-.1-1.29-.85-1.29-.57,0-.82.44-.82,1.24,0,.67.31,1.21,1.18,1.73l1.7,1.03c2.29,1.39,3.27,2.55,3.27,5.51v.18c0,3.63-1.75,5.07-5.18,5.07-3.79,0-5.67-1.26-5.67-4.58Z"/>
    <path class="st0" d="M204.77,88.39v-12.26h4.64v12.77c0,.75.18,1.18.9,1.18s.9-.44.9-1.18v-12.77h4.64v12.26c0,4.4-.85,6.08-5.54,6.08s-5.54-1.67-5.54-6.08Z"/>
    <path class="st0" d="M220.25,76.13h6.08l3.06,18.03h-4.76l-.21-1.98h-2.27l-.21,1.98h-4.76l3.06-18.03ZM224.34,88.31l-.93-7.34h-.26l-.93,7.34h2.11Z"/>
    <path class="st0" d="M230.93,76.13h4.58v13.31h5.56v4.71h-10.15v-18.03Z"/>
    <path class="st0" d="M250.58,76.13h6.08l3.06,18.03h-4.76l-.21-1.98h-2.27l-.21,1.98h-4.76l3.06-18.03ZM254.67,88.31l-.93-7.34h-.26l-.93,7.34h2.11Z"/>
    <path class="st0" d="M261.26,76.13h9.86v4.4h-5.28v2.78h4.69v4.3h-4.69v6.54h-4.58v-18.03Z"/>
    <path class="st0" d="M273.19,76.13h9.86v4.4h-5.28v2.78h4.69v4.3h-4.69v6.54h-4.58v-18.03Z"/>
    <path class="st0" d="M286.63,76.13h6.08l3.06,18.03h-4.76l-.21-1.98h-2.27l-.21,1.98h-4.76l3.06-18.03ZM290.72,88.31l-.93-7.34h-.26l-.93,7.34h2.11Z"/>
    <path class="st0" d="M297.31,76.13h4.79v18.03h-4.79v-18.03Z"/>
    <path class="st0" d="M305.19,76.13h5.67c4.35,0,5.33,1.6,5.33,4.46v.82c0,2.73-.67,3.86-2.34,4.09v.18c1.8.15,2.37,1.26,2.37,3.12v3.32c0,1.06.03,1.42.18,1.88v.15h-4.58c-.13-.62-.18-1.31-.18-2.42v-3.35c0-1.03-.23-1.44-1.13-1.44h-.72v7.21h-4.58v-18.03ZM310.47,83.7c1,0,1.29-.52,1.29-1.6v-.59c0-1.18-.28-1.75-1.29-1.75h-.7v3.94h.7Z"/>
    <path class="st0" d="M318.35,89.88c0-.36.03-.8.08-1.24h4.25c-.05.26-.08.49-.08.75,0,.82.28,1.37,1.06,1.37.7,0,.95-.54.95-1.29s-.36-1.24-1.21-1.83l-1.83-1.26c-2.29-1.57-3.19-3.04-3.19-5.46v-.26c0-3.24,1.73-4.84,5.2-4.84,3.79,0,5.28,1.47,5.28,4.76,0,.39,0,.85-.05,1.34h-4.15c.05-.31.05-.62.05-.93-.03-.8-.1-1.29-.85-1.29-.57,0-.82.44-.82,1.24,0,.67.31,1.21,1.18,1.73l1.7,1.03c2.29,1.39,3.27,2.55,3.27,5.51v.18c0,3.63-1.75,5.07-5.18,5.07-3.79,0-5.67-1.26-5.67-4.58Z"/>
  </g>
</svg>
